<svg width="1315" height="373" viewBox="0 0 1315 373" fill="none" xmlns="http://www.w3.org/2000/svg">
<path d="M190.5 0C219.716 0 247.395 6.44167 272.14 17.9492C256.236 11.5059 239.746 8.00001 223.5 8C117.5 8.00007 66.0001 86.2867 66 182.959C65.9998 299 136.515 358 223.5 358C253.034 358 279.264 350.806 301.482 338.094C270.23 360.062 231.909 373 190.5 373C85.2898 373 0 289.501 0 186.5C0 83.4989 85.2898 0 190.5 0Z" fill="#0D0D0D"/>
<path d="M218.672 10C315.598 10 394.172 87.007 394.172 182C394.172 182.334 394.168 182.667 394.166 183H326.084C323.883 87.9202 279.792 12.5 207.672 12.5C198.718 12.5 189.421 13.0287 180 14.1924C192.443 11.45 205.384 10 218.672 10Z" fill="#6B7280"/>
<path d="M202.801 241.41H180.559C180.152 238.533 179.323 235.977 178.07 233.742C176.818 231.474 175.21 229.544 173.246 227.953C171.283 226.362 169.014 225.143 166.441 224.297C163.902 223.451 161.143 223.027 158.164 223.027C152.781 223.027 148.092 224.365 144.098 227.039C140.103 229.68 137.005 233.539 134.805 238.617C132.604 243.661 131.504 249.789 131.504 257C131.504 264.414 132.604 270.643 134.805 275.687C137.039 280.732 140.154 284.54 144.148 287.113C148.143 289.686 152.764 290.973 158.012 290.973C160.957 290.973 163.682 290.583 166.188 289.805C168.727 289.026 170.978 287.892 172.941 286.402C174.905 284.879 176.53 283.034 177.816 280.867C179.137 278.701 180.051 276.229 180.559 273.453L202.801 273.555C202.225 278.328 200.786 282.932 198.484 287.367C196.216 291.768 193.152 295.712 189.293 299.199C185.467 302.652 180.897 305.395 175.582 307.426C170.301 309.423 164.326 310.422 157.656 310.422C148.38 310.422 140.086 308.323 132.773 304.125C125.495 299.927 119.74 293.85 115.508 285.895C111.31 277.939 109.211 268.307 109.211 257C109.211 245.659 111.344 236.01 115.609 228.055C119.875 220.099 125.664 214.039 132.977 209.875C140.289 205.677 148.516 203.578 157.656 203.578C163.682 203.578 169.268 204.424 174.414 206.117C179.594 207.81 184.181 210.281 188.176 213.531C192.171 216.747 195.421 220.691 197.926 225.363C200.465 230.035 202.09 235.384 202.801 241.41ZM218.568 309V205H288.646V223.129H240.557V247.91H285.041V266.039H240.557V290.871H288.85V309H218.568ZM324.054 309H300.491L336.394 205H364.729L400.581 309H377.019L350.968 228.766H350.155L324.054 309ZM322.581 268.121H378.237V285.285H322.581V268.121ZM500.087 205V309H481.095L435.849 243.543H435.087V309H413.099V205H432.396L477.286 270.406H478.2V205H500.087ZM566.445 248.418V265.582H519.016V248.418H566.445ZM607.273 205V309H585.285V205H607.273ZM712.353 205V309H693.36L648.114 243.543H647.353V309H625.364V205H644.661L689.552 270.406H690.466V205H712.353ZM726.559 223.129V205H811.973V223.129H780.133V309H758.398V223.129H726.559ZM890.277 205H912.266V272.539C912.266 280.122 910.454 286.758 906.832 292.445C903.243 298.133 898.216 302.568 891.75 305.75C885.284 308.898 877.751 310.473 869.152 310.473C860.52 310.473 852.97 308.898 846.504 305.75C840.038 302.568 835.01 298.133 831.422 292.445C827.833 286.758 826.039 280.122 826.039 272.539V205H848.027V270.66C848.027 274.621 848.891 278.142 850.617 281.223C852.378 284.303 854.849 286.724 858.031 288.484C861.214 290.245 864.921 291.125 869.152 291.125C873.418 291.125 877.125 290.245 880.273 288.484C883.456 286.724 885.91 284.303 887.637 281.223C889.397 278.142 890.277 274.621 890.277 270.66V205ZM952.345 205V309H930.356V205H952.345ZM966.475 223.129V205H1051.89V223.129H1020.05V309H998.314V223.129H966.475ZM1087.94 205V309H1065.96V205H1087.94ZM1201.6 257C1201.6 268.341 1199.45 277.99 1195.16 285.945C1190.89 293.901 1185.07 299.978 1177.69 304.176C1170.34 308.34 1162.08 310.422 1152.91 310.422C1143.66 310.422 1135.37 308.323 1128.02 304.125C1120.68 299.927 1114.87 293.85 1110.6 285.895C1106.34 277.939 1104.21 268.307 1104.21 257C1104.21 245.659 1106.34 236.01 1110.6 228.055C1114.87 220.099 1120.68 214.039 1128.02 209.875C1135.37 205.677 1143.66 203.578 1152.91 203.578C1162.08 203.578 1170.34 205.677 1177.69 209.875C1185.07 214.039 1190.89 220.099 1195.16 228.055C1199.45 236.01 1201.6 245.659 1201.6 257ZM1179.31 257C1179.31 249.654 1178.21 243.458 1176.01 238.414C1173.84 233.37 1170.78 229.544 1166.82 226.938C1162.86 224.331 1158.22 223.027 1152.91 223.027C1147.59 223.027 1142.95 224.331 1138.99 226.938C1135.03 229.544 1131.95 233.37 1129.75 238.414C1127.58 243.458 1126.5 249.654 1126.5 257C1126.5 264.346 1127.58 270.542 1129.75 275.586C1131.95 280.63 1135.03 284.456 1138.99 287.062C1142.95 289.669 1147.59 290.973 1152.91 290.973C1158.22 290.973 1162.86 289.669 1166.82 287.062C1170.78 284.456 1173.84 280.63 1176.01 275.586C1178.21 270.542 1179.31 264.346 1179.31 257ZM1304.88 205V309H1285.89L1240.64 243.543H1239.88V309H1217.89V205H1237.19L1282.08 270.406H1282.99V205H1304.88Z" fill="#0D0D0D"/>
</svg>
