<svg width="402" height="373" viewBox="0 0 402 373" fill="none" xmlns="http://www.w3.org/2000/svg">
<path d="M190.5 0C219.716 0 247.395 6.44167 272.14 17.9492C256.236 11.5059 239.746 8.00001 223.5 8C117.5 8.00007 66.0001 86.2867 66 182.959C65.9998 299 136.515 358 223.5 358C253.034 358 279.264 350.806 301.482 338.094C270.23 360.062 231.909 373 190.5 373C85.2898 373 0 289.501 0 186.5C0 83.4989 85.2898 0 190.5 0Z" fill="#0082FF"/>
<path d="M218.672 10C315.598 10 394.172 87.007 394.172 182C394.172 182.334 394.168 182.667 394.166 183H326.084C323.883 87.9202 279.792 12.5 207.672 12.5C198.718 12.5 189.421 13.0287 180 14.1924C192.443 11.45 205.384 10 218.672 10Z" fill="#6B7280"/>
<path d="M254.027 205V309H232.039V205H254.027ZM392.203 205V309H373.211L327.965 243.543H327.203V309H305.215V205H324.512L369.402 270.406H370.316V205H392.203Z" fill="#0082FF"/>
</svg>
